<?xml version="1.0" encoding="UTF-8"?>
<svg id="Camada_2" data-name="Camada 2" xmlns="http://www.w3.org/2000/svg" viewBox="0 0 283.46 60.36">
  <defs>
    <style>
      .cls-1 {
        fill: #fff;
      }

      .cls-2 {
        fill: #009fe3;
      }
    </style>
  </defs>
  <g id="Camada_1-2" data-name="Camada 1">
    <path class="cls-1" d="m167.32,57.27l-24.18-53.03c-.2-.35-.31-.76-.31-1.19,0-1.33,1.08-2.41,2.41-2.41h4.15c.91,0,1.78.53,2.18,1.41l20.06,43.87L191.61,2.24c.33-.93,1.22-1.6,2.27-1.6h4.26c.33,0,.67.08,1,.23,1.21.55,1.74,1.98,1.19,3.18l-24.29,53.03c-.33.93-1.22,1.6-2.27,1.6h-4.26c-.91,0-1.78-.53-2.18-1.41m-94.47-21.12V3.05c0-1.33,1.08-2.41,2.41-2.41h4.05c1.33,0,2.41,1.08,2.41,2.41v33.1c0,4.47,1.53,8.04,4.22,10.48,2.8,2.53,6.93,3.93,11.99,3.93h10.05c5.06,0,9.19-1.4,11.99-3.93,2.7-2.44,4.22-6.01,4.22-10.48V3.05c0-1.33,1.08-2.41,2.41-2.41h4.05c1.33,0,2.41,1.08,2.41,2.41v33.1c0,7.05-2.47,12.82-6.81,16.87-4.33,4.04-10.49,6.29-17.85,6.29h0s-.23-.01-.23-.01h-.2s-10.05,0-10.05,0h0s-.43,0-.43,0c-7.36,0-13.52-2.25-17.85-6.29-4.34-4.05-6.81-9.82-6.81-16.87Zm196.49,20.91c-3.73,1.45-8.09,2.26-12.88,2.26-6.83,0-12.54-1.61-16.57-4.63-4.14-3.09-6.49-7.57-6.49-13.22s2.42-10.22,6.92-13.34c4.21-2.92,10.23-4.51,17.74-4.51h16.54v-3.55c0-3.49-1.43-6.25-4.06-8.14-2.88-2.06-7.19-3.18-12.69-3.18-3.79,0-6.74.52-9.16,1.5-2.37.95-4.29,2.36-6.03,4.15l-.06.06c-.96.92-2.48.89-3.4-.07l-2.75-2.85c-.91-.92-.93-2.4-.03-3.34,2.47-2.58,5.32-4.64,8.86-6.06,3.48-1.39,7.58-2.15,12.58-2.15,7.78,0,14.09,1.83,18.5,5.19,4.6,3.5,7.11,8.57,7.11,14.89v36.19c0,1.33-1.08,2.41-2.41,2.41h-4.05c-1.33,0-2.41-1.08-2.41-2.41v-1.95c-1.57,1.07-3.33,1.99-5.26,2.74Zm9.3-29.07v-.19l-.11.09.11.09Zm-4.05,4.18h-16.54c-5.21,0-9.3.97-12.04,2.71-2.43,1.55-3.75,3.77-3.75,6.48s1.29,4.96,3.54,6.48c2.61,1.76,6.48,2.71,11.19,2.71,5.41,0,9.91-1.26,13.03-3.37,2.9-1.96,4.57-4.66,4.57-7.74v-7.28Zm-57.94,26.5h-4.04c-1.33,0-2.41-1.08-2.41-2.41V3.05c0-1.33,1.08-2.41,2.41-2.41h4.04c1.33,0,2.41,1.08,2.41,2.41v53.22c0,1.33-1.08,2.41-2.41,2.41Z"/>
    <path class="cls-1" d="m47.4,3.05v3.73c0,.54-.18,1.08-.56,1.53L10.29,52.35v5.6c0,1.33-1.08,2.41-2.41,2.41H2.83c-1.31-.03-2.36-1.09-2.36-2.41v-6.47c0-.54.18-1.09.56-1.54l3.11-3.76h0S34.76,9.18,34.76,9.18H2.41c-1.33,0-2.41-1.08-2.41-2.41v-3.73C0,1.72,1.08.64,2.41.64h42.58c1.33,0,2.41,1.08,2.41,2.41"/>
    <path class="cls-2" d="m13.86,57.95v-3.73c0-.54.18-1.09.56-1.53L52.24,7.11c.44-.58,1.14-.96,1.92-.96h5c.54,0,1.09.18,1.53.56,1.02.85,1.17,2.37.32,3.39L26.5,51.82h32.35c1.33,0,2.41,1.08,2.41,2.41v3.73c0,1.33-1.08,2.41-2.41,2.41H16.27c-1.33,0-2.41-1.08-2.41-2.41"/>
  </g>
</svg>